<svg xmlns="http://www.w3.org/2000/svg" width="21.221" height="14.59" viewBox="0 0 21.221 14.59"><defs><style>.a{fill:#fff;}</style></defs><path class="a" d="M130.51,14.92c-.576-1.023-1.2-1.211-2.473-1.284s-4.465-.123-7.234-.123-5.969.037-7.239.121-1.9.26-2.476,1.285-.9,2.784-.9,5.885v.011c0,3.087.305,4.863.9,5.874s1.206,1.21,2.474,1.3,4.468.119,7.24.119,5.964-.044,7.235-.117,1.9-.271,2.473-1.3c.6-1.011.9-2.786.9-5.874v-.011C131.412,17.7,131.11,15.943,130.51,14.92Zm-12.362,9.869V16.83l6.633,3.979Z" transform="translate(-110.191 -13.514)"/></svg>