<svg xmlns="http://www.w3.org/2000/svg" width="11.077" height="20.49" viewBox="0 0 11.077 20.49"><defs><style>.a{fill:#fff;}</style></defs><path class="a" d="M69.03,10.92l-2.657,0a4.666,4.666,0,0,0-4.915,5.043v2.324H58.787a.417.417,0,0,0-.417.418V22.07a.417.417,0,0,0,.417.418h2.672v8.5a.418.418,0,0,0,.418.418h3.485a.417.417,0,0,0,.417-.418v-8.5H68.9a.418.418,0,0,0,.418-.418V18.7a.419.419,0,0,0-.418-.418H65.779V16.312c0-.947.226-1.428,1.461-1.428h1.79a.418.418,0,0,0,.417-.418V11.337A.417.417,0,0,0,69.03,10.92Z" transform="translate(-58.37 -10.916)"/></svg>