<svg xmlns="http://www.w3.org/2000/svg" width="19.695" height="18.824" viewBox="0 0 19.695 18.824"><defs><style>.a{fill:#fff;}</style></defs><rect class="a" width="4.231" height="12.707" transform="translate(0.243 6.117)"/><path class="a" d="M98.455,16.444a4.553,4.553,0,0,0-3.526-1.455,5.043,5.043,0,0,0-1.467.2,3.31,3.31,0,0,0-1.116.557,5.556,5.556,0,0,0-.725.666,5.655,5.655,0,0,0-.5.679V15.283H86.9l.012.616q.014.615.014,3.795t-.026,8.3H91.12V20.9a3.06,3.06,0,0,1,.142-1.038,2.718,2.718,0,0,1,.813-1.1,2.083,2.083,0,0,1,1.353-.443,1.825,1.825,0,0,1,1.623.763,3.714,3.714,0,0,1,.519,2.109v6.8h4.218V20.708A6.1,6.1,0,0,0,98.455,16.444Z" transform="translate(-80.093 -9.167)"/><path class="a" d="M84.289,10.716a2.412,2.412,0,0,0-1.725.623,2.063,2.063,0,0,0-.659,1.57,2.1,2.1,0,0,0,.64,1.564,2.313,2.313,0,0,0,1.692.629h.026A2.419,2.419,0,0,0,86,14.472a2.03,2.03,0,0,0,.647-1.564A2.144,2.144,0,0,0,86,11.339,2.343,2.343,0,0,0,84.289,10.716Z" transform="translate(-81.905 -10.716)"/></svg>