<svg xmlns="http://www.w3.org/2000/svg" width="26.655" height="29.299" viewBox="0 0 26.655 29.299"><defs><style>.a{fill:#aeaebe;}</style></defs><path class="a" d="M19.968,12.683V7.138a.642.642,0,0,0-.177-.421L13.575.189A.62.62,0,0,0,13.129,0H3.273A3.284,3.284,0,0,0,0,3.3V21.941A3.263,3.263,0,0,0,3.273,25.22h7.78a8.4,8.4,0,1,0,8.915-12.537ZM13.74,2.143l4.171,4.39H15.205A1.475,1.475,0,0,1,13.74,5.062ZM3.273,24a2.046,2.046,0,0,1-2.052-2.058V3.3A2.063,2.063,0,0,1,3.273,1.221h9.245V5.062a2.692,2.692,0,0,0,2.687,2.693h3.542v4.769c-.183-.006-.33-.024-.488-.024a8.521,8.521,0,0,0-5.569,2.1H4.934a.611.611,0,1,0,0,1.221h6.619a9.716,9.716,0,0,0-1.075,1.893H4.934a.611.611,0,0,0,0,1.221h5.148A8.38,8.38,0,0,0,10.448,24H3.273Zm14.979,4.085a7.175,7.175,0,1,1,7.175-7.175A7.183,7.183,0,0,1,18.252,28.084Zm0,0"/><path class="a" d="M76.161,202.905h6.186a.611.611,0,1,0,0-1.221H76.161a.611.611,0,1,0,0,1.221Zm0,0" transform="translate(-71.227 -190.143)"/><path class="a" d="M250.194,283.406a.606.606,0,0,0-.891,0l-3.579,3.841a.608.608,0,0,0,.031.861.624.624,0,0,0,.873-.03l2.528-2.705v6.668a.611.611,0,1,0,1.221,0v-6.668l2.51,2.705a.609.609,0,0,0,.892-.831Zm0,0" transform="translate(-231.508 -267.004)"/></svg>